# xmcd
#
# Track frame offsets:
#	150
#	21696
#	46534
#	71391
#	95915
#	116490
#	137645
#	154730
#	171371
#	195294
#	238486
#
# Disc length: 4268 seconds
#
# Revision: 2
# Processed by: cddbd v1.4b41PL2 Copyright (c) Steve Scherf et al.
# Submitted via: EZCDDA 4.3.2
#
DISCID=9710aa0b
DTITLE=Red House - Hold on
DYEAR=1900
DGENRE=
TTITLE0=King - Collins Bues
TTITLE1=Hold On To The Light
TTITLE2=On The Road
TTITLE3=Thumbing For A Ride
TTITLE4=Running On Back
TTITLE5=Romancing
TTITLE6=Love's Divine
TTITLE7=Big Brown Latin Eyes
TTITLE8=Heart Made Of Stone
TTITLE9=Lovin' Money
TTITLE10=Pista 11
EXTD=
EXTT0=
EXTT1=
EXTT2=
EXTT3=
EXTT4=
EXTT5=
EXTT6=
EXTT7=
EXTT8=
EXTT9=
EXTT10=
PLAYORDER=
